<svg xmlns="http://www.w3.org/2000/svg" viewBox="0 0 32 40" x="0px" y="0px"><title>Igloo</title><path d="M16,3A13.015,13.015,0,0,0,3,16V28a1,1,0,0,0,1,1H28a1,1,0,0,0,1-1V16A13.015,13.015,0,0,0,16,3Zm4,16c-.008,0-.014,0-.022,0a4.95,4.95,0,0,0-7.956,0c-.008,0-.014,0-.022,0H10V13H21v6ZM5,19V16a10.948,10.948,0,0,1,.426-3H8v6Zm18-6h3.574A10.948,10.948,0,0,1,27,16v3H23Zm2.786-2H20V5.764A11.05,11.05,0,0,1,25.786,11ZM16,5a10.988,10.988,0,0,1,2,.191V11H6.214A11,11,0,0,1,16,5ZM5,21h6.1a5,5,0,0,0-.1,1v5H5Zm8,6V22a3,3,0,0,1,6,0v5Zm8,0V22a5,5,0,0,0-.1-1H27v6Z"/><text x="0" y="47" fill="#000000" font-size="5px" font-weight="bold" font-family="'Helvetica Neue', Helvetica, Arial-Unicode, Arial, Sans-serif">Created by Zulfahmi Al Ridhawi</text><text x="0" y="52" fill="#000000" font-size="5px" font-weight="bold" font-family="'Helvetica Neue', Helvetica, Arial-Unicode, Arial, Sans-serif">from the Noun Project</text></svg>